<svg xmlns="http://www.w3.org/2000/svg" viewBox="0 0 163.29 69.55"><defs><style>.cls-1{fill:#f47e20;}.cls-2{fill:#111827;}</style></defs><g id="Layer_2" data-name="Layer 2"><g id="Layer_1-2" data-name="Layer 1"><circle class="cls-1" cx="37.96" cy="58.75" r="10.8"/><path class="cls-1" d="M114.52,2.48A15.06,15.06,0,0,0,106.59,0a15.38,15.38,0,0,0-7.92,2.48,19,19,0,0,0-5.82,5.35L82.42,22.29c3.29,2,13,8.41,14.45,17l9.34-12.81,17.85,24.72h-.21L136.58,69h26.71l-43-61.18A19.34,19.34,0,0,0,114.52,2.48Z"/><path class="cls-2" d="M83.8,29.68a28.71,28.71,0,0,0-4.7-2.77,37.27,37.27,0,0,0-16.2-3.34h-35Q24,23.57,24,20.81T27.87,18H76.55L90.29.19H27.87Q16.23.19,8.4,5.54,0,11.26,0,20.81T8.4,36q7.83,5.35,19.47,5.35h35a18.12,18.12,0,0,1,5.28.72l.73.23c2.29.89,3.44,2.2,3.44,3.91s-1.15,3-3.44,3.92a15.19,15.19,0,0,1-6,1.14H61.55L48.76,69H62.9a39.18,39.18,0,0,0,14-2.34A28.74,28.74,0,0,0,83.7,63q8.79-6.3,8.79-16.51c0-.39,0-.78,0-1.16Q92,35.81,83.8,29.68Z"/></g></g></svg>
