<?xml version="1.0" encoding="UTF-8" standalone="no"?>
<!-- Created with Inkscape (http://www.inkscape.org/) -->

<svg
   version="1.1"
   id="svg2"
   width="1920"
   height="1386.6667"
   viewBox="0 0 1920 1386.6667"
   sodipodi:docname="smark logo.svg"
   inkscape:version="1.2.2 (732a01da63, 2022-12-09)"
   xmlns:inkscape="http://www.inkscape.org/namespaces/inkscape"
   xmlns:sodipodi="http://sodipodi.sourceforge.net/DTD/sodipodi-0.dtd"
   xmlns="http://www.w3.org/2000/svg"
   xmlns:svg="http://www.w3.org/2000/svg">
  <defs
     id="defs6">
    <clipPath
       clipPathUnits="userSpaceOnUse"
       id="clipPath18">
      <path
         d="M 0,1040 H 1440 V 0 H 0 Z"
         id="path16" />
    </clipPath>
  </defs>
  <sodipodi:namedview
     id="namedview4"
     pagecolor="#000000"
     bordercolor="#000000"
     borderopacity="0.25"
     inkscape:showpageshadow="2"
     inkscape:pageopacity="0"
     inkscape:pagecheckerboard="0"
     inkscape:deskcolor="#d1d1d1"
     showgrid="false"
     inkscape:zoom="1.2072114"
     inkscape:cx="909.53415"
     inkscape:cy="707.41545"
     inkscape:window-width="1920"
     inkscape:window-height="1017"
     inkscape:window-x="-8"
     inkscape:window-y="-8"
     inkscape:window-maximized="1"
     inkscape:current-layer="g12">
    <inkscape:page
       x="0"
       y="0"
       id="page8"
       width="1920"
       height="1386.6667" />
  </sodipodi:namedview>
  <g
     id="g10"
     inkscape:groupmode="layer"
     inkscape:label="Page 1"
     transform="matrix(1.3333333,0,0,-1.3333333,0,1386.6667)">
    <g
       id="g12">
      <g
         id="g14"
         clip-path="url(#clipPath18)">
        <g
           id="g20"
           transform="translate(677.6797,361.3633)">
          <path
             d="m 0,0 c -1.625,-0.403 -3.257,-0.807 -4.895,-1.213 l -2.458,-0.611 -2.494,-0.497 c -1.665,-0.325 -3.336,-0.653 -5.014,-0.981 -1.678,-0.319 -3.387,-0.508 -5.085,-0.77 l -2.556,-0.369 c -0.851,-0.137 -1.708,-0.24 -2.573,-0.304 -1.721,-0.16 -3.449,-0.321 -5.183,-0.482 -1.728,-0.201 -3.478,-0.233 -5.227,-0.312 -1.747,-0.07 -3.501,-0.14 -5.26,-0.21 -1.76,0.016 -3.526,0.031 -5.297,0.047 l -2.657,0.021 -2.603,0.146 c -1.834,0.106 -3.674,0.213 -5.519,0.32 -1.824,0.129 -3.521,0.377 -5.292,0.557 -3.487,0.305 -7.071,0.98 -10.642,1.539 -7.111,1.37 -14.246,3.003 -21.222,5.364 -3.528,1.042 -6.946,2.468 -10.42,3.742 -1.713,0.705 -3.407,1.466 -5.117,2.191 l -2.561,1.102 -2.51,1.232 c -13.445,6.449 -26.137,14.89 -37.565,24.954 -5.716,5.035 -11.055,10.533 -16.095,16.317 -1.223,1.477 -2.448,2.955 -3.675,4.436 -1.214,1.489 -2.323,3.065 -3.493,4.592 l -1.729,2.312 -1.634,2.384 c -1.069,1.603 -2.233,3.144 -3.23,4.798 -8.303,13.016 -14.811,27.258 -19.209,42.173 l -1.538,5.627 c -0.495,1.88 -0.854,3.795 -1.292,5.691 l -0.644,2.846 -0.501,2.878 c -0.314,1.921 -0.72,3.829 -0.965,5.762 l -0.717,5.802 c -0.141,0.965 -0.215,1.938 -0.276,2.911 l -0.211,2.918 c -0.148,1.945 -0.308,3.889 -0.307,5.843 l -0.135,5.58 0.149,6.245 0.035,1.561 c 0.009,0.525 0.019,1.05 0.065,1.5 l 0.214,2.818 0.205,2.819 c 0.059,0.936 0.129,1.878 0.271,2.855 l 0.717,5.803 c 0.245,1.933 0.651,3.84 0.965,5.761 l 0.501,2.877 0.646,2.847 c 0.454,1.891 0.817,3.805 1.309,5.686 l 1.537,5.626 c 4.385,14.917 10.924,29.141 19.217,42.157 16.619,26.046 40.542,46.864 67.411,59.759 l 2.508,1.232 2.56,1.102 c 1.709,0.726 3.403,1.486 5.117,2.185 3.472,1.274 6.889,2.7 10.415,3.742 6.973,2.362 14.105,3.996 21.213,5.368 3.575,0.559 7.126,1.234 10.703,1.545 1.785,0.181 3.563,0.431 5.344,0.557 1.785,0.106 3.564,0.211 5.338,0.317 l 2.532,0.148 2.743,0.021 c 1.826,0.015 3.646,0.029 5.461,0.043 1.734,-0.07 3.464,-0.139 5.187,-0.207 1.723,-0.078 3.435,-0.107 5.174,-0.308 1.733,-0.16 3.461,-0.321 5.182,-0.48 0.864,-0.065 1.721,-0.167 2.572,-0.304 l 2.555,-0.368 c 1.698,-0.262 3.407,-0.45 5.084,-0.769 1.677,-0.328 3.348,-0.654 5.012,-0.98 l 2.494,-0.496 2.458,-0.61 c 1.637,-0.405 3.269,-0.809 4.894,-1.211 1.614,-0.443 3.201,-0.954 4.796,-1.424 1.585,-0.499 3.198,-0.908 4.738,-1.499 12.473,-4.314 24.088,-9.901 34.517,-16.477 10.434,-6.572 19.693,-14.084 27.714,-22.028 5.056,-4.997 9.642,-10.151 13.758,-15.371 h 2.484 c -4.189,5.844 -8.882,11.685 -14.177,17.375 -7.845,8.376 -16.85,16.561 -27.215,23.854 -10.364,7.273 -21.948,13.832 -34.669,19.065 -1.565,0.719 -3.206,1.257 -4.824,1.885 -1.627,0.6 -3.251,1.241 -4.905,1.814 -1.668,0.533 -3.343,1.068 -5.025,1.605 l -2.531,0.807 -2.574,0.693 c -1.724,0.456 -3.454,0.915 -5.191,1.375 -1.74,0.449 -3.516,0.769 -5.285,1.162 l -2.665,0.564 c -0.889,0.203 -1.784,0.37 -2.688,0.5 -1.804,0.288 -3.615,0.578 -5.432,0.868 -1.804,0.328 -3.68,0.492 -5.549,0.699 -1.866,0.195 -3.763,0.417 -5.628,0.587 -1.811,0.106 -3.628,0.212 -5.451,0.318 l -2.739,0.16 c 0.008,0.003 -0.393,0.019 -0.483,0.017 l -0.354,0.003 -0.709,0.005 -1.421,0.01 c -1.897,0.012 -3.8,0.025 -5.709,0.037 -1.909,-0.01 -3.821,-0.145 -5.743,-0.214 -3.851,-0.087 -7.696,-0.546 -11.581,-0.9 -7.729,-0.96 -15.552,-2.225 -23.279,-4.277 -3.904,-0.887 -7.713,-2.172 -11.592,-3.322 -1.914,-0.647 -3.809,-1.363 -5.723,-2.047 l -2.87,-1.043 -2.822,-1.179 c -15.146,-6.144 -29.645,-14.703 -42.891,-25.242 -1.631,-1.349 -3.264,-2.701 -4.9,-4.055 -1.614,-1.38 -3.149,-2.854 -4.731,-4.283 -0.782,-0.723 -1.579,-1.434 -2.351,-2.172 l -2.258,-2.273 c -1.488,-1.535 -3.057,-3.001 -4.482,-4.605 -5.889,-6.251 -11.235,-13.062 -16.192,-20.188 l -3.598,-5.438 c -1.18,-1.829 -2.247,-3.729 -3.376,-5.596 -0.552,-0.941 -1.125,-1.871 -1.659,-2.823 l -1.539,-2.894 c -0.998,-1.944 -2.113,-3.835 -3.004,-5.838 -3.852,-7.876 -6.986,-16.118 -9.686,-24.511 -2.688,-8.407 -4.518,-17.082 -5.915,-25.816 l -0.857,-6.582 c -0.16,-1.083 -0.257,-2.215 -0.34,-3.357 l -0.268,-3.408 -0.259,-3.409 c -0.054,-0.587 -0.066,-1.103 -0.079,-1.62 l -0.044,-1.561 -0.167,-6.244 0.181,-6.91 c 0.022,-2.213 0.208,-4.42 0.389,-6.626 l 0.263,-3.309 c 0.079,-1.103 0.173,-2.205 0.334,-3.301 l 0.857,-6.582 c 1.381,-8.737 3.251,-17.402 5.932,-25.809 0.598,-2.122 1.41,-4.176 2.107,-6.264 l 1.088,-3.116 c 0.383,-1.031 0.815,-2.043 1.22,-3.065 0.838,-2.032 1.616,-4.088 2.507,-6.093 l 2.766,-5.968 c 3.918,-7.834 8.24,-15.437 13.183,-22.578 4.953,-7.127 10.321,-13.918 16.197,-20.175 1.424,-1.604 2.993,-3.07 4.48,-4.605 l 2.257,-2.273 c 0.771,-0.737 1.568,-1.448 2.35,-2.171 1.581,-1.429 3.116,-2.902 4.729,-4.282 1.638,-1.351 3.273,-2.699 4.906,-4.046 0.805,-0.685 1.644,-1.328 2.497,-1.953 l 2.534,-1.894 2.53,-1.888 c 0.841,-0.63 1.733,-1.19 2.596,-1.786 1.743,-1.171 3.468,-2.358 5.216,-3.501 1.786,-1.085 3.568,-2.168 5.348,-3.249 7.206,-4.159 14.562,-7.938 22.155,-10.961 l 2.821,-1.179 2.868,-1.043 c 1.913,-0.684 3.808,-1.401 5.724,-2.04 3.877,-1.151 7.684,-2.436 11.586,-3.324 7.724,-2.052 15.543,-3.318 23.27,-4.28 3.889,-0.354 7.701,-0.813 11.641,-0.906 1.937,-0.07 3.929,-0.207 5.797,-0.215 1.848,0.014 3.691,0.028 5.528,0.042 l 2.896,0.031 2.824,0.161 c 1.878,0.107 3.749,0.215 5.615,0.322 1.86,0.171 3.711,0.391 5.554,0.585 1.843,0.205 3.682,0.365 5.497,0.693 14.558,2.181 28.424,5.958 41.112,11.259 2.628,1.08 5.196,2.23 7.726,3.418 H 0.01 C 0.007,0.002 0.003,0.001 0,0"
             style="fill:#ffffff;fill-opacity:1;fill-rule:nonzero;stroke:none"
             id="path22" />
        </g>
        <g
           id="g24"
           transform="translate(566.751,526.1102)"
           style="fill:#f57d05;fill-opacity:1">
          <path
             d="m 0,0 c -8.461,0 -15.32,-6.859 -15.32,-15.32 0,-8.46 6.859,-15.319 15.32,-15.319 8.461,0 15.32,6.859 15.32,15.319 C 15.32,-6.859 8.461,0 0,0"
             style="fill:#f57d05;fill-opacity:1;fill-rule:nonzero;stroke:none"
             id="path26" />
        </g>
        <g
           id="g28"
           transform="translate(675.377,590.6319)"
           style="stroke-width:0.99975002;stroke-dasharray:none">
          <path
             d="m 0,0 c -3.792,2.347 -7.539,3.521 -11.24,3.521 -3.612,0 -7.359,-1.174 -11.24,-3.521 -3.521,-2.166 -6.276,-4.696 -8.261,-7.583 l -14.796,-20.529 c 4.659,-2.785 18.399,-11.932 20.505,-24.062 l 13.25,18.183 25.324,-35.074 H 13.238 L 31.303,-94.389 H 69.201 L 8.125,-7.583 C 6.047,-4.603 3.339,-2.078 0,0"
             style="fill:#f57d05;fill-opacity:1;fill-rule:nonzero;stroke:none;opacity:1;stroke-width:0.99975002;stroke-dasharray:none"
             id="path30" />
        </g>
        <g
           id="g32"
           transform="translate(631.7942,552.0361)">
          <path
             d="m 0,0 c -2.086,1.517 -4.315,2.823 -6.669,3.942 -6.611,3.141 -14.268,4.726 -22.989,4.726 h -49.7 c -3.702,0 -5.552,1.308 -5.552,3.926 0,2.618 1.85,3.929 5.552,3.929 h 69.066 L 9.209,41.846 h -88.567 c -11.015,0 -20.224,-2.528 -27.626,-7.583 -7.945,-5.418 -11.917,-12.641 -11.917,-21.669 0,-8.938 3.972,-16.115 11.917,-21.532 7.402,-5.056 16.611,-7.583 27.626,-7.583 h 49.7 c 2.808,0 5.294,-0.359 7.496,-1.033 0.346,-0.106 0.704,-0.199 1.036,-0.322 3.25,-1.264 4.875,-3.114 4.875,-5.552 0,-2.348 -1.625,-4.198 -4.875,-5.552 -2.528,-1.082 -5.372,-1.625 -8.532,-1.625 h -1.911 l -18.155,-25.189 h 20.066 c 7.429,0 14.049,1.107 19.863,3.317 3.514,1.336 6.735,3.073 9.66,5.215 8.305,5.958 12.458,13.767 12.458,23.428 0,0.556 -0.017,1.105 -0.044,1.649 C 11.837,-13.185 7.746,-5.789 0,0"
             style="fill:#ffffff;fill-opacity:1;fill-rule:nonzero;stroke:none"
             id="path34" />
        </g>
        <g
           id="g36"
           transform="translate(614.916,450.4195)">
          <path
             d="m 0,0 c -2.252,1.637 -5.053,2.456 -8.404,2.456 h -14.084 c -1.049,0 -1.573,0.371 -1.573,1.113 0,0.742 0.524,1.113 1.573,1.113 h 19.571 l 5.526,7.176 h -25.097 c -3.122,0 -5.731,-0.717 -7.828,-2.149 -2.252,-1.535 -3.377,-3.582 -3.377,-6.14 0,-2.533 1.125,-4.567 3.377,-6.101 2.097,-1.434 4.706,-2.15 7.828,-2.15 h 14.084 c 0.921,0 1.727,-0.128 2.417,-0.383 0.922,-0.359 1.382,-0.883 1.382,-1.574 0,-0.666 -0.46,-1.19 -1.382,-1.573 -0.716,-0.307 -1.522,-0.461 -2.417,-0.461 h -19.802 l -5.526,-7.138 h 25.328 c 3.377,0 6.165,0.807 8.365,2.418 2.354,1.689 3.531,3.901 3.531,6.639 C 3.492,-3.99 2.328,-1.74 0,0"
             style="fill:#ffffff;fill-opacity:1;fill-rule:nonzero;stroke:none"
             id="path38" />
        </g>
        <g
           id="g40"
           transform="translate(661.6565,461.6057)">
          <path
             d="m 0,0 c -0.896,0.678 -1.944,1.017 -3.147,1.017 -1.816,0 -3.377,-1.075 -4.681,-3.223 l -8.481,-13.777 -8.442,13.777 c -1.331,2.148 -2.905,3.223 -4.721,3.223 -1.177,0 -2.219,-0.339 -3.127,-1.017 -0.909,-0.678 -1.504,-1.516 -1.785,-2.514 l -7.176,-24.559 h 9.44 l 3.608,14.621 7.79,-12.472 c 0.434,-0.691 1.087,-1.266 1.957,-1.728 0.869,-0.46 1.765,-0.69 2.686,-0.69 1.791,0 3.198,0.806 4.221,2.418 l 7.752,12.472 3.646,-14.621 H 8.942 L 1.804,-2.514 C 1.497,-1.516 0.896,-0.678 0,0"
             style="fill:#ffffff;fill-opacity:1;fill-rule:nonzero;stroke:none"
             id="path42" />
        </g>
        <g
           id="g44"
           transform="translate(697.9975,461.357)">
          <path
             d="M 0,0 C -1.074,0.665 -2.137,0.997 -3.185,0.997 -4.209,0.997 -5.271,0.665 -6.37,0 -7.368,-0.615 -8.149,-1.331 -8.711,-2.15 L -26.44,-26.748 h 10.629 l 12.472,17.116 7.176,-9.94 H -7.714 l -5.18,-7.176 H 19.609 L 2.303,-2.15 C 1.714,-1.305 0.946,-0.589 0,0"
             style="fill:#ffffff;fill-opacity:1;fill-rule:nonzero;stroke:none"
             id="path46" />
        </g>
        <g
           id="g48"
           transform="translate(755.0415,446.5626)">
          <path
             d="m 0,0 c 1.215,1.573 1.823,3.333 1.823,5.277 0,3.454 -1.51,6.114 -4.528,7.982 -2.686,1.637 -6.191,2.456 -10.515,2.456 h -17.461 l -5.602,-7.176 h 23.869 c 3.607,0 5.41,-1.075 5.41,-3.224 0,-1.101 -0.601,-1.932 -1.803,-2.494 -0.947,-0.436 -2.149,-0.653 -3.607,-0.653 h -23.869 v -14.122 h 8.596 v 6.946 h 11.819 l 8.366,-6.946 H 4.97 L -5.046,-3.626 C -2.897,-2.782 -1.216,-1.573 0,0"
             style="fill:#ffffff;fill-opacity:1;fill-rule:nonzero;stroke:none"
             id="path50" />
        </g>
        <g
           id="g52"
           transform="translate(776.5507,448.2326)"
           inkscape:label="g52">
          <path
             d="M 0,0 19.725,14.045 H 6.831 L -6.447,4.566 v 9.479 h -8.596 v -27.669 h 8.596 v 9.249 l 13.278,-9.249 h 13.047 z"
             style="fill:#ffffff;fill-opacity:1;fill-rule:nonzero;stroke:none"
             id="path54"
             inkscape:label="path54" />
        </g>
        <g
           id="g56"
           transform="translate(871.7107,407.4666)"
           inkscape:label="g56"
           style="fill:#000000;fill-opacity:1">
          <path
             d="m 0,0 c -1.381,1.131 -3.122,1.696 -5.223,1.696 h -7.433 c -2.124,0 -3.871,-0.565 -5.241,-1.696 -1.37,-1.13 -2.055,-2.575 -2.055,-4.332 0,-1.76 0.685,-3.181 2.055,-4.265 1.37,-1.085 3.117,-1.627 5.241,-1.627 h 7.433 c 2.124,0 3.87,0.542 5.24,1.627 1.371,1.084 2.056,2.505 2.056,4.265 C 2.073,-2.575 1.381,-1.13 0,0"
             style="fill:#000000;fill-opacity:1;fill-rule:nonzero;stroke:none"
             id="path58" />
        </g>
        <g
           id="g60"
           transform="translate(710.7573,407.4666)"
           style="fill:#000000;fill-opacity:1">
          <path
             d="m 0,0 c -1.381,1.131 -3.122,1.696 -5.223,1.696 h -7.433 c -2.124,0 -3.871,-0.565 -5.241,-1.696 -1.37,-1.13 -2.055,-2.575 -2.055,-4.332 0,-1.76 0.685,-3.181 2.055,-4.265 1.37,-1.085 3.117,-1.627 5.241,-1.627 h 7.433 c 2.124,0 3.87,0.542 5.24,1.627 1.371,1.084 2.056,2.505 2.056,4.265 C 2.073,-2.575 1.381,-1.13 0,0"
             style="fill:#000000;fill-opacity:1;fill-rule:nonzero;stroke:none"
             id="path62" />
        </g>
        <g
           id="g64"
           transform="translate(603.8371,414.7461)">
          <path
             d="M 0,0 C -0.958,0.593 -1.907,0.89 -2.843,0.89 -3.756,0.89 -4.704,0.593 -5.685,0 -6.576,-0.549 -7.273,-1.188 -7.775,-1.919 L -23.6,-23.875 h 9.489 l 11.132,15.277 6.405,-8.872 h -10.31 l -4.624,-6.405 H 17.504 L 2.056,-1.919 C 1.53,-1.165 0.845,-0.526 0,0"
             style="fill:#ffffff;fill-opacity:1;fill-rule:nonzero;stroke:none"
             id="path66" />
        </g>
        <g
           id="g68"
           transform="translate(647.8868,402.1059)">
          <path
             d="m 0,0 c 0,-1.986 -0.742,-3.334 -2.226,-4.042 -1.096,-0.547 -2.935,-0.821 -5.515,-0.821 -3.242,0 -5.39,0.182 -6.439,0.547 -1.965,0.64 -2.947,2.078 -2.947,4.316 v 13.462 h -7.638 V 0 c 0,-7.49 5.138,-11.235 15.414,-11.235 h 1.61 C 2.534,-11.235 7.673,-7.49 7.673,0 V 13.462 H 0 Z"
             style="fill:#ffffff;fill-opacity:1;fill-rule:nonzero;stroke:none"
             id="path70" />
        </g>
        <g
           id="g72"
           transform="translate(661.7589,415.568)">
          <path
             d="M 0,0 -4.932,-6.405 H 5.24 v -18.292 h 7.673 v 18.292 h 7.398 L 25.278,0 Z"
             style="fill:#ffffff;fill-opacity:1;fill-rule:nonzero;stroke:none"
             id="path74" />
        </g>
        <g
           id="g76"
           transform="translate(710.7747,398.8698)"
           inkscape:label="g76">
          <path
             d="m 0,0 c -1.37,-1.085 -3.117,-1.627 -5.24,-1.627 h -7.433 c -2.125,0 -3.871,0.542 -5.242,1.627 -1.369,1.084 -2.054,2.505 -2.054,4.264 0,1.758 0.685,3.203 2.054,4.333 1.371,1.131 3.117,1.696 5.242,1.696 h 7.433 c 2.1,0 3.841,-0.565 5.223,-1.696 C 1.364,7.467 2.056,6.022 2.056,4.264 2.056,2.505 1.37,1.084 0,0 M 5.481,13.341 C 2.694,15.579 -0.88,16.698 -5.24,16.698 h -7.433 c -4.363,0 -7.942,-1.119 -10.739,-3.357 -2.797,-2.238 -4.195,-5.161 -4.195,-8.768 0,-3.609 1.409,-6.606 4.229,-8.992 2.821,-2.386 6.389,-3.58 10.705,-3.58 h 7.433 c 4.292,0 7.849,1.194 10.669,3.58 2.82,2.386 4.23,5.383 4.23,8.992 0,3.607 -1.392,6.53 -4.178,8.768"
             style="fill:#ffffff;fill-opacity:1;fill-rule:nonzero;stroke:none"
             id="path78" />
        </g>
        <g
           id="g80"
           transform="translate(759.3108,414.968)">
          <path
             d="m 0,0 c -0.799,0.605 -1.736,0.908 -2.809,0.908 -1.621,0 -3.014,-0.959 -4.178,-2.877 l -7.57,-12.297 -7.536,12.297 c -1.188,1.918 -2.592,2.877 -4.213,2.877 -1.051,0 -1.981,-0.303 -2.792,-0.908 -0.81,-0.605 -1.341,-1.353 -1.592,-2.244 l -6.406,-21.921 h 8.426 l 3.22,13.05 6.954,-11.132 c 0.388,-0.616 0.97,-1.13 1.746,-1.542 0.776,-0.411 1.576,-0.616 2.398,-0.616 1.598,0 2.855,0.719 3.768,2.158 l 6.919,11.132 3.254,-13.05 H 7.981 L 1.61,-2.244 C 1.336,-1.353 0.799,-0.605 0,0"
             style="fill:#ffffff;fill-opacity:1;fill-rule:nonzero;stroke:none"
             id="path82" />
        </g>
        <g
           id="g84"
           transform="translate(791.7476,414.7461)">
          <path
             d="M 0,0 C -0.958,0.593 -1.907,0.89 -2.843,0.89 -3.756,0.89 -4.704,0.593 -5.685,0 -6.576,-0.549 -7.273,-1.188 -7.775,-1.919 L -23.6,-23.875 h 9.489 l 11.132,15.277 6.405,-8.872 h -10.31 l -4.624,-6.405 H 17.504 L 2.056,-1.919 C 1.53,-1.165 0.845,-0.526 0,0"
             style="fill:#ffffff;fill-opacity:1;fill-rule:nonzero;stroke:none"
             id="path86" />
        </g>
        <g
           id="g88"
           transform="translate(801.2021,409.1626)">
          <path
             d="m 0,0 h 10.173 v -18.292 h 7.673 V 0 h 7.398 l 4.967,6.405 H 4.932 Z"
             style="fill:#ffffff;fill-opacity:1;fill-rule:nonzero;stroke:none"
             id="path90" />
        </g>
        <path
           d="m 833.571,390.871 h 7.638 v 24.697 h -7.638 z"
           style="fill:#ffffff;fill-opacity:1;fill-rule:nonzero;stroke:none"
           id="path92" />
        <g
           id="g94"
           transform="translate(871.7281,398.8698)"
           style="display:inline">
          <path
             d="m 0,0 c -1.37,-1.085 -3.117,-1.627 -5.24,-1.627 h -7.433 c -2.125,0 -3.871,0.542 -5.241,1.627 -1.37,1.084 -2.055,2.505 -2.055,4.264 0,1.758 0.685,3.203 2.055,4.333 1.37,1.131 3.116,1.696 5.241,1.696 h 7.433 c 2.1,0 3.841,-0.565 5.223,-1.696 C 1.364,7.467 2.056,6.022 2.056,4.264 2.056,2.505 1.37,1.084 0,0 M 5.481,13.341 C 2.694,15.579 -0.88,16.698 -5.24,16.698 h -7.433 c -4.363,0 -7.942,-1.119 -10.739,-3.357 -2.797,-2.238 -4.195,-5.161 -4.195,-8.768 0,-3.609 1.409,-6.606 4.229,-8.992 2.821,-2.386 6.389,-3.58 10.705,-3.58 h 7.433 c 4.292,0 7.849,1.194 10.669,3.58 2.82,2.386 4.23,5.383 4.23,8.992 0,3.607 -1.392,6.53 -4.178,8.768"
             style="fill:#ffffff;fill-opacity:1;fill-rule:nonzero;stroke:none"
             id="path96" />
        </g>
        <g
           id="g98"
           transform="translate(906.084,415.568)">
          <path
             d="m 0,0 v -13.599 l -14.455,12.092 c -1.187,0.981 -2.478,1.472 -3.87,1.472 -1.074,0 -1.902,-0.296 -2.483,-0.89 -0.583,-0.594 -0.875,-1.348 -0.875,-2.261 v -21.511 h 7.673 v 13.565 L 0.445,-23.224 c 1.324,-1.096 2.717,-1.643 4.179,-1.643 2.032,0 3.048,1.118 3.048,3.356 L 7.672,0 Z"
             style="fill:#ffffff;fill-opacity:1;fill-rule:nonzero;stroke:none"
             id="path100" />
        </g>
      </g>
    </g>
  </g>
</svg>
